<?xml version="1.0" encoding="utf-8"?>
<!-- Svg Vector Icons : http://www.onlinewebfonts.com/icon -->
<!DOCTYPE svg PUBLIC "-//W3C//DTD SVG 1.1//EN" "http://www.w3.org/Graphics/SVG/1.1/DTD/svg11.dtd">
<svg version="1.1" xmlns="http://www.w3.org/2000/svg" xmlns:xlink="http://www.w3.org/1999/xlink" x="0px" y="0px" viewBox="0 0 1000 1000" enable-background="new 0 0 1000 1000" xml:space="preserve">
<metadata> Svg Vector Icons : http://www.onlinewebfonts.com/icon </metadata>
<g><g transform="translate(0.000000,511.000000) scale(0.100000,-0.100000)"><path d="M4989.9,4949.5c0-84.7-78.6-227.9-199.6-373c-56.5-66.5-110.9-149.2-121-185.5c-34.3-119,26.2-272.2,135.1-344.8c42.3-28.2,44.4-28.2,32.3,34.3c-12.1,52.4,0,82.7,70.6,181.5c44.4,66.5,82.7,133.1,82.7,151.2c0,86.7,108.9-22.2,153.2-157.3c20.2-54.4,28.2-125,22.2-165.4c-12.1-68.6-12.1-68.6,36.3-36.3c64.5,42.3,123,141.2,139.2,229.9c16.1,96.8-36.3,322.6-102.9,445.6c-58.5,110.9-199.6,280.3-229.9,280.3C4998,5010,4989.9,4981.8,4989.9,4949.5z"/><path d="M3618.7,4274c-2-86.7-60.5-205.7-169.4-338.8c-175.4-217.8-191.6-258.1-153.3-401.3c20.2-68.6,123-197.6,159.3-197.6c8.1,0,12.1,28.2,6.1,60.5c-6.1,48.4,10.1,90.7,74.6,185.5c44.4,68.6,82.7,141.2,82.7,163.3c0,40.3,0,40.3,42.3,2c72.6-64.5,127-191.6,127-302.5c2-102.8,2-102.8,48.4-72.6c207.7,137.1,139.1,611-125,871.1l-92.8,88.7V4274z"/><path d="M6371.2,4253.8c-22.2-114.9-70.6-201.7-199.6-358.9c-125-153.3-143.2-199.6-127-320.6c12.1-90.7,58.5-165.3,133.1-215.8c46.4-30.2,46.4-30.2,34.3,30.2c-10.1,46.4-2,76.6,38.3,129.1c28.2,38.3,68.6,108.9,90.7,157.3c24.2,46.4,48.4,84.7,56.5,84.7c28.2,0,125-167.4,137.1-235.9c6.1-36.3,8.1-92.7,4-125c-8-52.4-4-56.5,26.2-40.3c54.4,28.2,117,117,143.2,203.7c50.4,169.4-56.5,477.9-231.9,673.5l-90.7,98.8L6371.2,4253.8z"/><path d="M4852.8,3796.1c-18.2-18.1-24.2-276.3-24.2-1038.5V1743.3h-514.2h-514.2v675.5c0,645.3-2,675.5-38.3,695.7c-58.5,30.2-254.1,26.2-282.3-6c-14.1-18.2-24.2-242-26.2-691.6l-6-663.4l-615-10.1l-615-10.1l-102.8-54.4c-129.1-68.6-288.4-242-340.8-371c-38.3-92.8-40.3-157.3-46.4-1199.8l-6.1-1103l-114.9-22.2c-225.8-44.3-403.3-187.5-506.1-405.3l-52.4-110.9l-6-1457.9l-6.1-1455.9H749.3c-298.4-2-328.7-8.1-373-94.8c-38.3-70.6-28.2-127.1,34.3-189.6L469-4790h4531h4531l58.5,58.5c62.5,62.5,72.6,119,34.3,189.6c-44.4,86.7-74.6,92.8-373,94.8h-286.3l-6,1455.9l-6.1,1457.9l-56.5,121c-30.2,66.5-90.7,155.3-131.1,199.6c-86.7,88.7-274.2,185.5-401.3,205.7l-86.7,12.1V39.4c0,615-8.1,1076.8-20.2,1141.3c-42.3,215.8-173.4,393.2-373,500.1l-100.8,52.4l-615,10.1l-615,10.1l-6.1,663.4c-2,449.7-12.1,673.5-26.2,691.6c-34.3,38.3-248,34.3-288.4-6c-28.2-26.2-32.3-119-32.3-695.7v-663.4h-514.2h-514.2v1014.3c0,762.2-6,1020.3-24.2,1038.5C5114.9,3828.4,4885.1,3828.4,4852.8,3796.1z M7730.3,1370.3c82.7-40.3,159.3-139.1,183.5-233.9c14.1-50.4,20.2-256.1,16.1-544.4l-6-465.8l-56.5-48.4c-125-106.9-260.1-34.3-286.3,155.3c-18.2,143.2-50.4,215.8-133.1,310.5c-201.7,227.9-560.6,225.8-768.3-6c-74.6-82.7-137.1-242-137.1-350.9c0-78.6-80.7-157.3-159.3-157.3c-102.8,0-163.3,72.6-183.5,217.8c-38.3,278.3-240,463.8-506.1,467.8c-258.1,2-475.9-187.5-512.2-445.6c-20.2-133.1-48.4-191.6-102.8-217.8c-129-58.5-227.8,14.1-250,183.5c-40.3,288.3-250,481.9-522.3,479.9c-266.2-4-465.8-187.5-502.1-463.8c-20.2-147.2-84.7-221.8-187.5-221.8c-78.6,0-159.3,78.6-159.3,157.3c0,280.3-246,528.3-524.3,528.3c-252.1,0-504.1-223.8-504.1-447.7c0-197.6-163.3-302.5-296.4-189.5l-56.5,48.4v492c0,268.2,6,514.2,14.1,544.4c22.2,74.6,112.9,177.4,187.5,209.7c48.4,22.2,556.5,26.2,2728.3,28.2C7310.8,1400.5,7681.9,1396.5,7730.3,1370.3z M8407.8-1380.2c44.4-20.2,96.8-56.5,117-78.6c84.7-94.8,92.8-167.4,94.8-826.8c0-695.7-4-725.9-121-768.3c-123-42.3-209.7,32.3-229.9,199.6c-58.5,486-671.5,643.2-941.7,244c-50.4-76.6-98.8-231.9-98.8-322.6c0-38.3-68.6-108.9-127-129.1c-20.2-8.1-66.5-2-102.9,14.1c-72.6,30.3-112.9,108.9-112.9,221.8c-2,90.7-64.5,211.7-153.2,298.4c-276.3,264.1-738,145.2-844.9-213.8c-16.1-54.4-30.2-123-30.2-153.2c0-123-117-199.6-231.9-153.3c-80.7,34.3-110.9,84.7-110.9,187.5c0,165.4-149.2,373-320.6,443.6c-92.8,40.3-294.4,40.3-387.2,0c-98.8-40.3-213.7-147.2-262.1-237.9c-20.2-42.4-46.4-133.1-56.5-199.6c-20.2-149.2-66.5-203.7-173.4-207.7c-58.5-2-86.7,10.1-123,54.5c-26.2,30.2-48.4,80.7-48.4,110.9c0,30.3-14.1,100.8-30.2,155.2c-62.5,211.7-260.1,356.9-483.9,354.9c-66.5,0-159.3-14.1-207.7-34.3c-159.3-64.5-306.5-276.3-306.5-441.6c0-179.5-195.6-268.2-304.5-141.2c-18.1,22.2-42.3,96.8-54.4,165.4c-30.2,167.4-104.9,294.4-219.8,367c-189.5,121-401.3,117-584.8-6c-112.9-76.6-201.7-231.9-219.8-387.2c-20.2-157.3-108.9-229.9-229.9-189.6c-116.9,42.4-121,72.6-121,768.3c2,659.4,10.1,732,94.8,826.8c20.2,22.2,72.6,58.5,116.9,78.6c76.6,36.3,221.8,38.3,3407.8,38.3C8186-1341.8,8331.2-1343.9,8407.8-1380.2z"/></g></g>
</svg>